<mxfile host="app.diagrams.net" modified="2023-09-23T06:21:44.826Z" agent="Mozilla/5.0 (X11; Ubuntu; Linux x86_64; rv:109.0) Gecko/20100101 Firefox/118.0" version="21.8.1" etag="0J0dqOV6A1pNUnvb2Oh2" type="github">
  <diagram name="Page-1" id="JIyYZ6WUbH-QaajIhvlb">
    <mxGraphModel>
      <root>
        <mxCell id="0" />
        <mxCell id="1" parent="0" />
      </root>
    </mxGraphModel>
  </diagram>
</mxfile>
